<svg width="20" height="20" viewBox="0 0 60 60" fill="none" xmlns="http://www.w3.org/2000/svg">
<path d="M51.1004 36.6H43.6004V40.4H51.1004C52.1004 40.4 53.0004 41.2 53.0004 42.3C53.0004 43.4 52.2004 44.2 51.1004 44.2H4.30039C3.30039 44.2 2.40039 45 2.40039 46.1C2.40039 47.1 3.20039 48 4.30039 48H51.2004C54.3004 48 56.8004 45.5 56.8004 42.4C56.8004 39.1 54.2004 36.6 51.1004 36.6V36.6ZM52.5004 23.7L48.8004 23.4C48.8004 23.3 51.1004 9.60001 51.6004 6.80001C51.9004 5.20001 52.5004 0.700012 58.2004 0.700012V4.50001C55.9004 4.50001 55.6004 5.40001 55.4004 7.10001C54.8004 9.90001 52.5004 23.5 52.5004 23.7Z" fill="#B2C1C0"/>
<path d="M52.7004 10.3H2.00037C0.100373 10.3 -0.199627 12.1 0.100373 13.1L5.80037 38.5C6.10038 39.5 7.10037 40.3 8.20037 40.3H48.0004C49.0004 40.3 50.0004 39.5 50.2004 38.4L54.4004 12.1C54.5004 11.2 53.7004 10.3 52.7004 10.3V10.3ZM4.90037 18.8L3.90037 15C3.80037 14.5 4.10037 14.1 4.60037 14.1H11.7004C12.2004 14.1 12.7004 14.5 12.7004 15L13.1004 18.8C13.2004 19.3 12.8004 19.7 12.3004 19.7H6.00037C5.50037 19.7 5.00037 19.3 4.90037 18.8ZM8.10038 28.1C7.60038 28.1 7.10037 27.7 6.90037 27.2L6.20037 24.3C6.10037 23.8 6.40037 23.4 6.90037 23.4H12.6004C13.1004 23.4 13.6004 23.8 13.6004 24.3L13.9004 27.1C14.0004 27.6 13.6004 28 13.1004 28C13.2004 28.1 8.10038 28.1 8.10038 28.1V28.1ZM14.1004 36.6H10.2004C9.70038 36.6 9.20038 36.2 9.00038 35.7L8.30038 32.8C8.20038 32.3 8.50037 31.9 9.00038 31.9H13.5004C14.0004 31.9 14.5004 32.3 14.5004 32.8L14.8004 35.6C15.0004 36.1 14.6004 36.6 14.1004 36.6ZM25.6004 35.6C25.6004 36.1 25.2004 36.5 24.7004 36.5H19.8004C19.3004 36.5 18.8004 36.1 18.8004 35.6L18.5004 32.8C18.4004 32.3 18.8004 31.9 19.3004 31.9H24.7004C25.2004 31.9 25.6004 32.3 25.6004 32.8V35.6ZM25.6004 27.2C25.6004 27.7 25.2004 28.1 24.7004 28.1H18.9004C18.4004 28.1 17.9004 27.7 17.9004 27.2L17.6004 24.4C17.5004 23.9 17.9004 23.5 18.4004 23.5H24.7004C25.2004 23.5 25.6004 23.9 25.6004 24.4V27.2ZM25.6004 18.8C25.6004 19.3 25.2004 19.7 24.7004 19.7H18.0004C17.5004 19.7 17.0004 19.3 17.0004 18.8L16.5004 15C16.4004 14.5 16.8004 14.1 17.3004 14.1H24.6004C25.1004 14.1 25.5004 14.5 25.5004 15C25.6004 15 25.6004 18.8 25.6004 18.8ZM35.8004 35.6C35.7004 36.1 35.3004 36.5 34.8004 36.5H30.4004C29.9004 36.5 29.5004 36.1 29.5004 35.6V32.8C29.5004 32.3 29.9004 31.9 30.4004 31.9H35.3004C35.8004 31.9 36.2004 32.3 36.1004 32.8L35.8004 35.6ZM36.7004 27.2C36.6004 27.7 36.2004 28.1 35.7004 28.1H30.4004C29.9004 28.1 29.5004 27.7 29.5004 27.2V24.4C29.5004 23.9 29.9004 23.5 30.4004 23.5H36.2004C36.7004 23.5 37.1004 23.9 37.0004 24.4L36.7004 27.2ZM37.6004 18.8C37.5004 19.3 37.1004 19.7 36.6004 19.7H30.4004C29.9004 19.7 29.5004 19.3 29.5004 18.8V15C29.5004 14.5 29.9004 14.1 30.4004 14.1H37.2004C37.7004 14.1 38.1004 14.5 38.0004 15L37.6004 18.8V18.8ZM46.3004 35.6C46.2004 36.1 45.7004 36.5 45.2004 36.5H40.4004C39.9004 36.5 39.5004 36.1 39.6004 35.6L39.9004 32.8C40.0004 32.3 40.4004 31.9 40.9004 31.9H46.0004C46.5004 31.9 46.9004 32.3 46.8004 32.8L46.3004 35.6V35.6ZM47.6004 27.2C47.5004 27.7 47.0004 28.1 46.5004 28.1H41.2004C40.7004 28.1 40.3004 27.7 40.4004 27.2L40.7004 24.4C40.8004 23.9 41.2004 23.5 41.7004 23.5H47.2004C47.7004 23.5 48.1004 23.9 48.0004 24.4L47.6004 27.2ZM48.9004 18.8C48.8004 19.3 48.3004 19.7 47.8004 19.7H42.1004C41.6004 19.7 41.2004 19.3 41.3004 18.8L41.7004 15C41.8004 14.5 42.2004 14.1 42.7004 14.1H48.6004C49.1004 14.1 49.5004 14.5 49.4004 15L48.9004 18.8" fill="#F15744"/>
<path d="M10.3004 60C13.3932 60 15.9004 57.4928 15.9004 54.4C15.9004 51.3072 13.3932 48.8 10.3004 48.8C7.20758 48.8 4.70038 51.3072 4.70038 54.4C4.70038 57.4928 7.20758 60 10.3004 60Z" fill="#62727A"/>
<path d="M10.3004 57.2C11.8468 57.2 13.1004 55.9464 13.1004 54.4C13.1004 52.8536 11.8468 51.6 10.3004 51.6C8.75397 51.6 7.50037 52.8536 7.50037 54.4C7.50037 55.9464 8.75397 57.2 10.3004 57.2Z" fill="white"/>
<path d="M44.1004 60C47.1932 60 49.7004 57.4928 49.7004 54.4C49.7004 51.3072 47.1932 48.8 44.1004 48.8C41.0076 48.8 38.5004 51.3072 38.5004 54.4C38.5004 57.4928 41.0076 60 44.1004 60Z" fill="#62727A"/>
<path d="M46.9004 54.4C46.9004 56 45.6004 57.2 44.1004 57.2C42.5004 57.2 41.3004 55.9 41.3004 54.4C41.3004 52.8 42.6004 51.6 44.1004 51.6C45.6004 51.6 46.9004 52.8 46.9004 54.4Z" fill="white"/>
<path d="M59.1004 0H56.3004V5.6H59.1004C59.6004 5.6 60.0004 5.2 60.0004 4.7V0.9C60.0004 0.4 59.6004 0 59.1004 0Z" fill="#62727A"/>
<path d="M10.3004 46.9C6.20035 46.9 2.80035 50.3 2.80035 54.4H17.8004C17.8004 50.2 14.5004 46.9 10.3004 46.9ZM44.1004 46.9C40.0004 46.9 36.6004 50.3 36.6004 54.4H51.6004C51.6004 50.2 48.2004 46.9 44.1004 46.9Z" fill="#F15744"/>
</svg>
