<svg width="32" height="32" viewBox="0 0 32 32" fill="none" xmlns="http://www.w3.org/2000/svg">
<path d="M23.6833 19.6262C23.6833 21.028 24.0817 21.587 25.1233 21.587C27.445 21.587 28.9233 18.6249 28.9233 13.6988C28.9233 6.16938 23.4433 2.56487 16.6017 2.56487C9.56333 2.56487 3.16167 7.29078 3.16167 16.2219C3.16167 24.7526 8.76167 29.3984 17.3617 29.3984C20.2817 29.3984 22.2417 29.078 25.24 28.0768L25.8833 30.7584C22.9233 31.7213 19.76 32 17.3217 32C6.04167 32 0 25.7922 0 16.2203C0 6.56821 7.00167 0 16.6417 0C26.6817 0 32 6.00751 32 13.3767C32 19.6245 30.0417 24.3905 23.8817 24.3905C21.08 24.3905 19.2417 23.2691 19.0017 20.7843C18.2817 23.5478 16.3617 24.3905 13.76 24.3905C10.28 24.3905 7.36 21.7055 7.36 16.3004C7.36 10.8536 9.92167 7.48936 14.5217 7.48936C16.9617 7.48936 18.4817 8.45056 19.1583 9.97246L20.32 7.84981H23.68V19.6262H23.6833V19.6262ZM18.765 14.3396C18.765 12.1385 17.1233 11.2157 15.7633 11.2157C14.2833 11.2157 12.645 12.4155 12.645 15.9416C12.645 18.7451 13.885 20.307 15.7633 20.307C17.0833 20.307 18.765 19.466 18.765 17.1431V14.3396Z" fill="#699BF7"/>
</svg>
