<svg width="33" height="33" viewBox="0 0 33 33" fill="none" xmlns="http://www.w3.org/2000/svg">
<path d="M16.5 0C7.33333 0 0 7.33333 0 16.5C0 25.6667 7.33333 33 16.5 33C25.6667 33 33 25.6667 33 16.5C33 7.33333 25.6667 0 16.5 0ZM16.5 12.8333C18.5167 12.8333 20.1667 14.4833 20.1667 16.5C20.1667 18.5167 18.5167 20.1667 16.5 20.1667C14.4833 20.1667 12.8333 18.5167 12.8333 16.5C12.8333 14.4833 14.4833 12.8333 16.5 12.8333ZM21.6333 9.16667C21.6333 7.88333 22.7333 6.96667 23.8333 6.96667C24.9333 6.96667 26.0333 8.06667 26.0333 9.16667C26.0333 10.2667 25.1167 11.3667 23.8333 11.3667C22.55 11.3667 21.6333 10.45 21.6333 9.16667V9.16667ZM16.5 29.3333C9.35 29.3333 3.66667 23.65 3.66667 16.5H9.16667C9.16667 20.5333 12.4667 23.8333 16.5 23.8333C20.5333 23.8333 23.8333 20.5333 23.8333 16.5H29.3333C29.3333 23.65 23.65 29.3333 16.5 29.3333Z" fill="#699BF7"/>
</svg>
