<svg width="36" height="36" viewBox="0 0 36 36" fill="none" xmlns="http://www.w3.org/2000/svg">
<path d="M18 0C8.0588 0 0 8.0588 0 18C0 27.9412 8.0588 36 18 36C27.9412 36 36 27.9412 36 18C36 8.0588 27.9412 0 18 0Z" fill="#40B3E0"/>
<path d="M26.7585 10.3542L23.5434 26.5639C23.5434 26.5639 23.0939 27.6881 21.8573 27.1485L14.4382 21.4605L11.7405 20.1566L7.19915 18.6278C7.19915 18.6278 6.50221 18.3805 6.43471 17.841C6.36721 17.3014 7.22165 17.0092 7.22165 17.0092L25.2745 9.92729C25.2745 9.92729 26.7584 9.27535 26.7584 10.3545" fill="white"/>
<path d="M13.8682 26.3817C13.8682 26.3817 13.6516 26.3614 13.3816 25.507C13.112 24.6527 11.7405 20.1564 11.7405 20.1564L22.6443 13.232C22.6443 13.232 23.2739 12.8498 23.2514 13.232C23.2514 13.232 23.3637 13.2995 23.0264 13.6142C22.6893 13.9291 14.4609 21.3255 14.4609 21.3255" fill="#D2E5F1"/>
</svg>
