<svg width="38" height="38" viewBox="0 0 38 38" fill="none" xmlns="http://www.w3.org/2000/svg">
<path d="M9.96217 32.6594L10.5783 32.9676C13.1461 34.5081 16.0216 35.227 18.8974 35.227C27.9352 35.227 35.3298 27.8324 35.3298 18.7946C35.3298 14.4811 33.5838 10.2703 30.5028 7.18918C27.4217 4.10806 23.3135 2.36218 18.8974 2.36218C9.85955 2.36218 2.46482 9.75676 2.56759 18.8974C2.56759 21.9783 3.49191 24.9569 5.0324 27.5243L5.44318 28.1406L3.80007 34.2001L9.96217 32.6594Z" fill="#00E676"/>
<path d="M32.2487 5.54594C28.7568 1.95141 23.9298 0 19 0C8.52444 0 0.102768 8.52429 0.205389 18.8972C0.205389 22.1837 1.12971 25.3676 2.67035 28.2432L0 38L9.96216 35.4324C12.7351 36.9731 15.8161 37.692 18.8974 37.692C29.2703 37.692 37.692 29.1675 37.692 18.7948C37.692 13.7622 35.7406 9.03784 32.2488 5.54594H32.2487ZM19 34.5082C16.227 34.5082 13.4541 33.7895 11.0919 32.3516L10.4757 32.0434L4.51899 33.5839L6.05948 27.73L5.6487 27.1137C1.12971 19.8218 3.28651 10.1675 10.6811 5.64856C18.0757 1.12971 27.6271 3.28651 32.1461 10.6811C36.6649 18.0757 34.5081 27.6271 27.1137 32.1461C24.7513 33.6865 21.8757 34.5081 19 34.5081V34.5082ZM28.0378 23.1084L26.9081 22.5948C26.9081 22.5948 25.265 21.8759 24.2379 21.3623C24.1352 21.3623 24.0325 21.2596 23.9298 21.2596C23.6216 21.2596 23.4162 21.3623 23.2108 21.4651C23.2108 21.4651 23.1082 21.5677 21.6703 23.211C21.5676 23.4164 21.3622 23.5191 21.1568 23.5191H21.054C20.9514 23.5191 20.746 23.4164 20.6433 23.3137L20.1297 23.1084C19 22.5948 17.9731 21.9785 17.1514 21.1569C16.946 20.9516 16.6378 20.7462 16.4324 20.5408C15.7135 19.8218 14.9946 19.0001 14.4812 18.0758L14.3784 17.8704C14.2758 17.7677 14.2758 17.665 14.173 17.4597C14.173 17.2543 14.173 17.0489 14.2758 16.9461C14.2758 16.9461 14.6865 16.4326 14.9946 16.1246C15.2001 15.919 15.3027 15.611 15.5081 15.4056C15.7135 15.0975 15.8163 14.6867 15.7135 14.3785C15.6109 13.865 14.3784 11.092 14.0704 10.4759C13.8648 10.1677 13.6596 10.0651 13.3514 9.96231H12.2217C12.0162 9.96231 11.811 10.0651 11.6054 10.0651L11.5027 10.1677C11.2973 10.2705 11.0919 10.4759 10.8865 10.5785C10.6811 10.784 10.5783 10.9893 10.3729 11.1948C9.65401 12.1191 9.24323 13.2488 9.24323 14.3785C9.24323 15.2001 9.44862 16.0218 9.75677 16.7407L9.85954 17.0489C10.7839 19.0001 12.0162 20.7462 13.6596 22.2867L14.0704 22.6974C14.3784 23.0056 14.6865 23.211 14.8919 23.519C17.0487 25.3678 19.5135 26.7029 22.2865 27.4218C22.5947 27.5244 23.0054 27.5244 23.3136 27.6272H24.3405C24.8541 27.6272 25.4703 27.4218 25.8812 27.2164C26.1892 27.011 26.3946 27.011 26.6 26.8057L26.8055 26.6001C27.0109 26.3947 27.2163 26.2921 27.4217 26.0867C27.6271 25.8813 27.8324 25.6759 27.9352 25.4704C28.1406 25.0596 28.2432 24.5461 28.346 24.0327V23.3137C28.346 23.3137 28.2432 23.211 28.0378 23.1084V23.1084Z" fill="white"/>
</svg>
