<svg width="86" height="94" viewBox="0 0 131 129" fill="none" xmlns="http://www.w3.org/2000/svg">
<path d="M68.9126 12.6287C73.5442 7.77074 81.5326 6.38176 90.9515 7.32655C99.6906 8.20084 108.678 11.0141 114.945 13.6228V83.5866C108.444 81.1188 100.023 78.7075 91.6668 77.8755C83.9192 77.0929 75.5342 77.6006 68.9126 81.3445V12.6287ZM65.3716 6.25485C58.3959 0.282935 48.2829 -0.605449 39.0764 0.311138C28.3544 1.38989 17.5332 5.04919 10.7912 8.10213C10.1726 8.38223 9.64802 8.83365 9.28009 9.4025C8.91215 9.97135 8.71641 10.6336 8.71622 11.3102V88.8675C8.71638 89.4574 8.8652 90.0378 9.14904 90.5555C9.43289 91.0733 9.84268 91.5118 10.3409 91.831C10.8391 92.1503 11.4098 92.3399 12.0007 92.3826C12.5916 92.4254 13.1838 92.3198 13.7231 92.0756C19.9694 89.2553 30.0328 85.8639 39.7846 84.8839C49.7631 83.8827 58.1268 85.4973 62.6097 91.0673C62.9415 91.4791 63.3619 91.8114 63.8399 92.0397C64.318 92.268 64.8414 92.3866 65.3716 92.3866C65.9018 92.3866 66.4253 92.268 66.9033 92.0397C67.3813 91.8114 67.8018 91.4791 68.1336 91.0673C72.6164 85.4973 80.9802 83.8827 90.9515 84.8839C100.71 85.8639 110.781 89.2553 117.02 92.0756C117.559 92.3198 118.152 92.4254 118.743 92.3826C119.333 92.3399 119.904 92.1503 120.402 91.831C120.901 91.5118 121.31 91.0733 121.594 90.5555C121.878 90.0378 122.027 89.4574 122.027 88.8675V11.3102C122.027 10.6336 121.831 9.97135 121.463 9.4025C121.095 8.83365 120.571 8.38223 119.952 8.10213C113.21 5.04919 102.389 1.38989 91.6668 0.311138C82.4603 -0.6125 72.3473 0.282935 65.3716 6.25485Z" fill="#9747FF"/>
<path d="M35.6997 121.027C35.313 121.027 34.9703 120.933 34.6714 120.746C34.3726 120.933 34.0943 121.027 33.8365 121.027C33.5845 121.027 33.3765 121.004 33.2124 120.957C33.0484 120.916 32.9048 120.857 32.7818 120.781C32.5298 120.629 32.4038 120.438 32.4038 120.21C32.4038 120.093 32.4361 119.99 32.5005 119.902C32.6294 120.002 32.7935 120.052 32.9927 120.052C33.5142 120.052 33.8745 119.829 34.0738 119.384V115.086C34.0738 114.822 34.0181 114.62 33.9068 114.479C33.731 114.251 33.4292 114.034 33.0015 113.829C33.3941 113.647 33.6519 113.489 33.7749 113.354C33.9742 113.126 34.0738 112.871 34.0738 112.59V108.881C33.8745 108.429 33.5142 108.204 32.9927 108.204C32.7935 108.204 32.6294 108.254 32.5005 108.353C32.4361 108.265 32.4038 108.166 32.4038 108.054C32.4038 107.937 32.4361 107.829 32.5005 107.729C32.5708 107.63 32.6646 107.545 32.7818 107.474C33.0513 107.31 33.3589 107.228 33.7046 107.228C34.0562 107.228 34.3785 107.325 34.6714 107.518C34.9761 107.325 35.316 107.228 35.691 107.228C36.1011 107.228 36.4585 107.337 36.7632 107.553C37.4136 107.278 38.0611 107.14 38.7056 107.14C39.3501 107.14 39.9361 107.205 40.4634 107.334C40.9966 107.457 41.4771 107.633 41.9048 107.861C42.8365 108.353 43.4165 108.992 43.6451 109.777C43.774 110.211 44.0523 110.533 44.48 110.744C44.0054 111.072 43.7124 111.447 43.6011 111.869C43.355 112.795 42.857 113.398 42.107 113.679C43.2085 113.984 43.9263 114.705 44.2603 115.842C44.3775 116.246 44.6558 116.577 45.0953 116.835C44.6441 117.087 44.3423 117.468 44.19 117.977C44.0376 118.487 43.7681 118.947 43.3814 119.357C43.0005 119.762 42.5552 120.095 42.0454 120.359C41.0611 120.863 39.9507 121.115 38.7144 121.115C37.9761 121.115 37.3169 120.983 36.7369 120.72C36.4322 120.925 36.0865 121.027 35.6997 121.027ZM38.9517 113.258C39.4673 113.258 39.8335 113.135 40.0503 112.888C40.2788 112.637 40.3931 112.203 40.3931 111.588V109.557C40.3931 109.2 40.2056 108.898 39.8306 108.652C39.5025 108.435 39.1978 108.327 38.9165 108.327C38.6412 108.327 38.4126 108.362 38.231 108.432C38.0552 108.497 37.897 108.588 37.7564 108.705C37.4576 108.951 37.3081 109.247 37.3081 109.593V113.258H38.9517ZM40.8941 108.529C41.0933 108.974 41.1929 109.625 41.1929 110.48C41.1929 111.74 41.1109 112.557 40.9468 112.932C41.1929 112.886 41.4009 112.648 41.5708 112.22C41.6353 112.062 41.6822 111.895 41.7115 111.72C41.7466 111.544 41.773 111.409 41.7906 111.315C41.814 111.216 41.8462 111.131 41.8872 111.06C41.9751 110.914 42.1333 110.803 42.3619 110.726C42.1275 110.65 41.981 110.568 41.9224 110.48C41.8462 110.381 41.7847 110.199 41.7378 109.935C41.691 109.672 41.6353 109.458 41.5708 109.294C41.5064 109.124 41.4361 108.986 41.3599 108.881C41.2134 108.67 41.0581 108.553 40.8941 108.529ZM34.9175 118.522C35.2105 118.411 35.3716 118.027 35.4009 117.371C35.4361 116.715 35.4537 115.806 35.4537 114.646C35.4537 113.486 35.4507 112.716 35.4449 112.335C35.4449 111.948 35.4419 111.637 35.4361 111.403C35.4185 110.712 35.3511 110.296 35.2339 110.155C35.1226 110.009 35.0171 109.912 34.9175 109.865C34.9175 111.904 34.8824 113.064 34.812 113.345C34.73 113.58 34.5308 113.747 34.2144 113.846C34.566 113.97 34.7652 114.119 34.812 114.295C34.8824 114.576 34.9175 115.604 34.9175 117.38V118.522ZM37.3081 118.557C37.3081 118.968 37.4634 119.304 37.774 119.568C38.0728 119.814 38.4302 119.937 38.8462 119.937C39.2505 119.937 39.5904 119.849 39.8658 119.674C40.3931 119.328 40.6568 118.932 40.6568 118.487V115.912C40.6568 115.379 40.4839 114.977 40.1382 114.708C39.8453 114.479 39.4615 114.365 38.9869 114.365H37.3081V118.557ZM41.2456 114.637C41.3863 114.954 41.4566 115.686 41.4566 116.835C41.4566 118.288 41.4038 119.14 41.2984 119.392C41.4214 119.369 41.5474 119.22 41.6763 118.944C41.8052 118.669 41.896 118.385 41.9488 118.092C42.0015 117.799 42.0367 117.599 42.0542 117.494C42.0777 117.388 42.1099 117.295 42.1509 117.213C42.2447 117.037 42.4029 116.911 42.6255 116.835C42.274 116.723 42.066 116.501 42.0015 116.167C41.9429 115.833 41.8843 115.575 41.8257 115.393C41.7671 115.212 41.7056 115.068 41.6412 114.963C41.5298 114.775 41.398 114.667 41.2456 114.637ZM48.1978 119.551C47.7115 119.047 47.316 118.44 47.0113 117.731C46.7124 117.022 46.5279 116.351 46.4576 115.719C46.3872 115.086 46.2788 114.649 46.1324 114.409C45.9917 114.163 45.7896 113.975 45.5259 113.846C46.0357 113.606 46.3345 113.114 46.4224 112.37C46.5162 111.62 46.7242 110.92 47.0464 110.269C47.3687 109.619 47.7788 109.062 48.2769 108.599C49.3257 107.627 50.5884 107.14 52.065 107.14C53.5826 107.14 54.8394 107.592 55.8355 108.494C56.8726 109.431 57.482 110.744 57.6636 112.431C57.7398 113.135 58.0386 113.606 58.5601 113.846C58.0503 114.098 57.7486 114.632 57.6548 115.446C57.5611 116.261 57.3765 117.022 57.1011 117.731C56.8257 118.44 56.4566 119.047 55.9937 119.551C55.0269 120.594 53.7203 121.115 52.0738 121.115C50.4976 121.115 49.2056 120.594 48.1978 119.551ZM51.0718 113.846C50.4273 114.157 50.105 114.664 50.105 115.367V117.977C50.105 118.932 50.5005 119.545 51.2915 119.814C51.5259 119.896 51.7808 119.937 52.0562 119.937C52.3316 119.937 52.5835 119.896 52.812 119.814C53.0464 119.732 53.2486 119.609 53.4185 119.445C53.7701 119.105 53.9458 118.616 53.9458 117.977V115.367C53.9458 114.664 53.6294 114.157 52.9966 113.846C53.6294 113.553 53.9458 113.082 53.9458 112.431V110.331C53.9458 109.68 53.7554 109.174 53.3745 108.81C53.0171 108.476 52.5747 108.309 52.0474 108.309C51.1509 108.309 50.5533 108.684 50.2544 109.434C50.1548 109.686 50.105 109.985 50.105 110.331V112.431C50.105 113.094 50.4273 113.565 51.0718 113.846ZM54.7544 109.865C54.9185 110.357 55.0005 111.204 55.0005 112.405C55.0005 113.085 54.9712 113.457 54.9126 113.521C54.854 113.586 54.7954 113.638 54.7369 113.679C54.6314 113.75 54.5171 113.805 54.3941 113.846C54.7456 114.005 54.9302 114.157 54.9478 114.303C55.0064 114.878 55.0357 115.376 55.0357 115.798C55.0357 116.214 55.0298 116.551 55.0181 116.808C55.0064 117.06 54.9888 117.295 54.9654 117.512C54.9185 117.974 54.8599 118.311 54.7896 118.522C55.2466 118.382 55.5015 117.705 55.5542 116.492C55.5835 115.812 55.5982 115.056 55.5982 114.224C55.5982 113.387 55.5894 112.76 55.5718 112.344C55.5542 111.922 55.5279 111.576 55.4927 111.306C55.4224 110.685 55.2759 110.255 55.0533 110.014C54.9888 109.944 54.8892 109.894 54.7544 109.865ZM48.4175 118.522C48.5054 118.487 48.5494 118.426 48.5494 118.338C48.5494 118.209 48.4878 118.007 48.3648 117.731C48.0542 117.022 47.899 115.727 47.899 113.846C47.899 112.475 48.063 111.309 48.3912 110.348C48.4322 110.202 48.4527 110.091 48.4527 110.014C48.4527 109.938 48.4146 109.888 48.3384 109.865C48.063 110.211 47.8667 110.553 47.7495 110.893C47.5328 111.514 47.3599 112.355 47.231 113.416C47.2134 113.568 47.0406 113.712 46.7124 113.846C47.0406 113.993 47.2134 114.142 47.231 114.295C47.4419 116.111 47.7115 117.324 48.0396 117.933C48.1509 118.15 48.2769 118.346 48.4175 118.522ZM62.0494 119.551C61.563 119.047 61.1675 118.44 60.8628 117.731C60.564 117.022 60.3794 116.351 60.3091 115.719C60.2388 115.086 60.1304 114.649 59.9839 114.409C59.8433 114.163 59.6412 113.975 59.3775 113.846C59.8872 113.606 60.1861 113.114 60.274 112.37C60.3677 111.62 60.5757 110.92 60.898 110.269C61.2203 109.619 61.6304 109.062 62.1285 108.599C63.1773 107.627 64.44 107.14 65.9165 107.14C67.4341 107.14 68.691 107.592 69.687 108.494C70.7242 109.431 71.3335 110.744 71.5152 112.431C71.5913 113.135 71.8902 113.606 72.4117 113.846C71.9019 114.098 71.6001 114.632 71.5064 115.446C71.4126 116.261 71.2281 117.022 70.9527 117.731C70.6773 118.44 70.3081 119.047 69.8453 119.551C68.8785 120.594 67.5718 121.115 65.9253 121.115C64.3492 121.115 63.0572 120.594 62.0494 119.551ZM64.9234 113.846C64.2788 114.157 63.9566 114.664 63.9566 115.367V117.977C63.9566 118.932 64.3521 119.545 65.1431 119.814C65.3775 119.896 65.6324 119.937 65.9078 119.937C66.1831 119.937 66.4351 119.896 66.6636 119.814C66.898 119.732 67.1001 119.609 67.2701 119.445C67.6216 119.105 67.7974 118.616 67.7974 117.977V115.367C67.7974 114.664 67.481 114.157 66.8482 113.846C67.481 113.553 67.7974 113.082 67.7974 112.431V110.331C67.7974 109.68 67.607 109.174 67.2261 108.81C66.8687 108.476 66.4263 108.309 65.899 108.309C65.0025 108.309 64.4048 108.684 64.106 109.434C64.0064 109.686 63.9566 109.985 63.9566 110.331V112.431C63.9566 113.094 64.2788 113.565 64.9234 113.846ZM68.606 109.865C68.7701 110.357 68.8521 111.204 68.8521 112.405C68.8521 113.085 68.8228 113.457 68.7642 113.521C68.7056 113.586 68.647 113.638 68.5884 113.679C68.4829 113.75 68.3687 113.805 68.2456 113.846C68.5972 114.005 68.7818 114.157 68.7994 114.303C68.8579 114.878 68.8872 115.376 68.8872 115.798C68.8872 116.214 68.8814 116.551 68.8697 116.808C68.8579 117.06 68.8404 117.295 68.8169 117.512C68.7701 117.974 68.7115 118.311 68.6412 118.522C69.0982 118.382 69.3531 117.705 69.4058 116.492C69.4351 115.812 69.4497 115.056 69.4497 114.224C69.4497 113.387 69.441 112.76 69.4234 112.344C69.4058 111.922 69.3794 111.576 69.3443 111.306C69.274 110.685 69.1275 110.255 68.9048 110.014C68.8404 109.944 68.7408 109.894 68.606 109.865ZM62.2691 118.522C62.357 118.487 62.4009 118.426 62.4009 118.338C62.4009 118.209 62.3394 118.007 62.2163 117.731C61.9058 117.022 61.7505 115.727 61.7505 113.846C61.7505 112.475 61.9146 111.309 62.2427 110.348C62.2837 110.202 62.3042 110.091 62.3042 110.014C62.3042 109.938 62.2662 109.888 62.19 109.865C61.9146 110.211 61.7183 110.553 61.6011 110.893C61.3843 111.514 61.2115 112.355 61.0826 113.416C61.065 113.568 60.8921 113.712 60.564 113.846C60.8921 113.993 61.065 114.142 61.0826 114.295C61.2935 116.111 61.563 117.324 61.8912 117.933C62.0025 118.15 62.1285 118.346 62.2691 118.522ZM75.9185 120.509C75.4497 120.977 75.0044 121.212 74.5826 121.212C74.313 121.212 74.1314 121.112 74.0376 120.913C74.1724 120.749 74.2398 120.503 74.2398 120.175V120.043C74.2398 120.008 74.2369 119.975 74.231 119.946C73.938 119.682 73.7915 119.372 73.7915 119.014C73.7915 118.651 73.9615 118.282 74.3013 117.907C74.2017 117.708 74.1519 117.497 74.1519 117.274C74.1519 117.046 74.1841 116.835 74.2486 116.641C74.3189 116.442 74.4126 116.269 74.5298 116.123C74.7759 115.801 75.0162 115.639 75.2505 115.639C75.4908 115.639 75.6607 115.733 75.7603 115.921C75.5494 116.143 75.4439 116.492 75.4439 116.967C75.4439 117.441 75.5113 117.854 75.646 118.206C75.7867 118.557 75.9829 118.859 76.2349 119.111C76.774 119.662 77.4624 119.937 78.3003 119.937C78.8628 119.937 79.3404 119.776 79.7329 119.454C80.1548 119.108 80.3658 118.637 80.3658 118.039C80.3658 117.617 80.2662 117.274 80.0669 117.011C79.7564 116.6 79.2701 116.167 78.6079 115.71C78.0982 115.352 77.691 115.174 77.3863 115.174C77.0757 115.174 76.7329 115.3 76.3579 115.552C76.4576 115.253 76.5074 114.974 76.5074 114.717C76.5074 114.658 76.4517 114.582 76.3404 114.488L76.0152 114.198C74.9898 113.255 74.3833 112.379 74.1958 111.57C74.1314 111.289 74.0992 110.937 74.0992 110.515C74.0992 110.088 74.2017 109.657 74.4068 109.223C74.6177 108.784 74.9048 108.412 75.2681 108.107C76.024 107.463 76.9849 107.14 78.1509 107.14C78.8599 107.14 79.5103 107.255 80.1021 107.483C80.354 107.583 80.6412 107.633 80.9634 107.633C81.0982 107.633 81.2183 107.627 81.3238 107.615C81.4351 107.597 81.5318 107.536 81.6138 107.43C81.69 107.319 81.7281 107.22 81.7281 107.132C81.7281 107.044 81.7163 106.97 81.6929 106.912C81.7339 106.894 81.7896 106.886 81.8599 106.886C81.9361 106.886 82.0181 106.912 82.106 106.965C82.1939 107.012 82.273 107.079 82.3433 107.167C82.5015 107.366 82.5806 107.592 82.5806 107.844C82.5806 108.09 82.5103 108.277 82.3697 108.406C82.5689 108.582 82.6685 108.854 82.6685 109.223C82.6685 109.587 82.5454 109.891 82.2994 110.137C82.3462 110.296 82.3697 110.439 82.3697 110.568C82.3697 110.691 82.3462 110.811 82.2994 110.928C82.2583 111.04 82.1997 111.137 82.1236 111.219C81.9537 111.4 81.7925 111.491 81.6402 111.491C81.3999 111.491 81.1978 111.45 81.0337 111.368C81.1333 111.134 81.1831 110.882 81.1831 110.612C81.1831 110.343 81.1216 110.067 80.9986 109.786C80.8814 109.499 80.7144 109.25 80.4976 109.039C80.0406 108.605 79.4429 108.388 78.7046 108.388C78.2359 108.388 77.8521 108.532 77.5533 108.819C77.272 109.089 77.1314 109.414 77.1314 109.795C77.1314 110.082 77.2017 110.322 77.3423 110.515C77.5884 110.849 77.9781 111.195 78.5113 111.553L78.9331 111.834C79.1675 111.98 79.3257 112.053 79.4078 112.053C79.4898 112.053 79.5718 112.045 79.6538 112.027C79.7359 112.01 79.8267 111.986 79.9263 111.957C80.1372 111.887 80.3423 111.787 80.5415 111.658L80.4273 112.15C80.3921 112.314 80.3745 112.434 80.3745 112.511C80.3745 112.634 80.4361 112.745 80.5591 112.845C81.6548 113.794 82.3872 114.588 82.7564 115.226C83.0787 115.783 83.2398 116.384 83.2398 117.028C83.2398 117.673 83.1343 118.226 82.9234 118.689C82.7124 119.152 82.4048 119.562 82.0005 119.92C81.1099 120.717 79.9527 121.115 78.5288 121.115C77.5269 121.115 76.6568 120.913 75.9185 120.509ZM75.3208 109.865C75.0982 109.959 74.9869 110.202 74.9869 110.595C74.9869 111.397 75.523 112.279 76.5953 113.24L77.1226 113.715C77.3042 113.879 77.3833 114.005 77.3599 114.093C77.3423 114.18 77.3247 114.251 77.3072 114.303C77.2954 114.356 77.2808 114.406 77.2632 114.453C77.2456 114.5 77.2339 114.535 77.2281 114.558C77.4331 114.435 77.6001 114.374 77.729 114.374C77.9869 114.374 78.23 114.444 78.4585 114.585C79.5894 115.288 80.357 115.915 80.7613 116.466C81.0542 116.87 81.2066 117.374 81.2183 117.977C81.2183 118.194 81.2037 118.376 81.1744 118.522C81.4849 118.323 81.6402 118.007 81.6402 117.573C81.6402 117.151 81.5816 116.826 81.4644 116.597C81.3531 116.369 81.2212 116.167 81.0689 115.991C80.9165 115.809 80.7173 115.613 80.4712 115.402C80.231 115.191 79.9322 114.963 79.5747 114.717L78.3267 113.864C77.3013 113.19 76.522 112.478 75.9888 111.728C75.5201 111.066 75.2974 110.445 75.3208 109.865ZM88.7505 120.755C88.4576 120.936 88.1265 121.027 87.7574 121.027C87.3882 121.027 87.0718 120.933 86.8081 120.746C86.5093 120.933 86.2339 121.027 85.982 121.027C85.73 121.027 85.522 121.004 85.3579 120.957C85.1939 120.916 85.0533 120.857 84.9361 120.781C84.6783 120.629 84.5494 120.438 84.5494 120.21C84.5494 120.093 84.5816 119.99 84.646 119.902C84.7749 120.002 84.939 120.052 85.1382 120.052C85.6597 120.052 86.0201 119.829 86.2193 119.384V115.086C86.2193 114.629 85.9908 114.283 85.5337 114.049L85.147 113.846C85.6685 113.606 85.9966 113.345 86.1314 113.064C86.19 112.935 86.2193 112.777 86.2193 112.59V108.881C86.0201 108.429 85.6597 108.204 85.1382 108.204C84.939 108.204 84.7749 108.254 84.646 108.353C84.5816 108.265 84.5494 108.166 84.5494 108.054C84.5494 107.937 84.5816 107.829 84.646 107.729C84.7163 107.63 84.813 107.545 84.9361 107.474C85.1997 107.31 85.5015 107.228 85.8413 107.228C86.187 107.228 86.5093 107.322 86.8081 107.51C87.0718 107.322 87.3882 107.228 87.7574 107.228C88.1324 107.228 88.4634 107.322 88.7505 107.51C89.0259 107.322 89.3335 107.228 89.6734 107.228C90.1714 107.228 90.5259 107.395 90.7369 107.729C90.8072 107.835 90.8423 107.946 90.8423 108.063C90.8423 108.18 90.8072 108.277 90.7369 108.353C90.6079 108.254 90.4468 108.204 90.2535 108.204C89.8023 108.204 89.5005 108.424 89.3482 108.863V113.504H93.5054V108.863C93.3531 108.424 93.0513 108.204 92.6001 108.204C92.4068 108.204 92.2456 108.254 92.1167 108.353C92.0464 108.277 92.0113 108.18 92.0113 108.063C92.0113 107.946 92.0435 107.835 92.1079 107.729C92.1783 107.624 92.2662 107.533 92.3716 107.457C92.5943 107.304 92.8638 107.228 93.1802 107.228C93.5201 107.228 93.8277 107.322 94.1031 107.51C94.4019 107.322 94.7329 107.228 95.0962 107.228C95.4654 107.228 95.7818 107.322 96.0454 107.51C96.3326 107.322 96.605 107.228 96.8628 107.228C97.1206 107.228 97.3316 107.252 97.4956 107.299C97.6597 107.34 97.8033 107.398 97.9263 107.474C98.1783 107.627 98.3042 107.817 98.3042 108.046C98.3042 108.163 98.272 108.265 98.2076 108.353C98.0787 108.254 97.9146 108.204 97.7154 108.204C97.1939 108.204 96.8335 108.429 96.6343 108.881V112.59C96.6343 113.047 96.8599 113.401 97.3111 113.653C97.44 113.723 97.5718 113.788 97.7066 113.846C97.355 114.016 97.1177 114.154 96.9947 114.26C96.7544 114.482 96.6343 114.758 96.6343 115.086V119.384C96.8335 119.829 97.1939 120.052 97.7154 120.052C97.9146 120.052 98.0787 120.002 98.2076 119.902C98.272 119.99 98.3042 120.093 98.3042 120.21C98.3042 120.321 98.2691 120.427 98.1988 120.526C98.1343 120.626 98.0435 120.711 97.9263 120.781C97.6568 120.945 97.3462 121.027 96.9947 121.027C96.649 121.027 96.3326 120.933 96.0454 120.746C95.7818 120.933 95.4654 121.027 95.0962 121.027C94.7329 121.027 94.4019 120.933 94.1031 120.746C93.8277 120.933 93.5201 121.027 93.1802 121.027C92.6822 121.027 92.3247 120.86 92.1079 120.526C92.0435 120.421 92.0113 120.309 92.0113 120.192C92.0113 120.075 92.0464 119.978 92.1167 119.902C92.2456 120.002 92.4068 120.052 92.6001 120.052C93.0513 120.052 93.3531 119.832 93.5054 119.392V114.761H89.3482V119.392C89.5005 119.832 89.8023 120.052 90.2535 120.052C90.4468 120.052 90.6079 120.002 90.7369 119.902C90.8072 119.978 90.8423 120.075 90.8423 120.192C90.8423 120.309 90.8072 120.421 90.7369 120.526C90.6724 120.632 90.5845 120.722 90.4732 120.799C90.2622 120.951 89.9956 121.027 89.6734 121.027C89.3394 121.027 89.0318 120.936 88.7505 120.755ZM94.2349 111.966C94.229 112.593 94.2261 113.633 94.2261 115.086C94.2261 116.539 94.2466 117.394 94.2876 117.652C94.3638 118.144 94.5162 118.434 94.7447 118.522V117.38C94.7447 115.821 94.7564 114.942 94.7798 114.743C94.8033 114.538 94.8267 114.394 94.8501 114.312C94.9029 114.107 95.0816 113.952 95.3863 113.846C95.1167 113.764 94.938 113.597 94.8501 113.345C94.7798 113.064 94.7447 111.904 94.7447 109.865C94.5162 109.97 94.3755 110.181 94.3228 110.498C94.2701 110.844 94.2408 111.333 94.2349 111.966ZM87.063 118.522C87.3443 118.411 87.5025 118.027 87.5376 117.371C87.5669 116.715 87.5816 115.806 87.5816 114.646C87.5816 113.486 87.5787 112.716 87.5728 112.335C87.5728 111.948 87.5699 111.637 87.564 111.403C87.5464 110.718 87.482 110.302 87.3706 110.155C87.2652 110.009 87.1626 109.912 87.063 109.865C87.063 111.904 87.0279 113.064 86.9576 113.345C86.8755 113.58 86.6763 113.747 86.3599 113.846C86.7115 113.97 86.9107 114.119 86.9576 114.295C87.0279 114.576 87.063 115.604 87.063 117.38V118.522Z" fill="#9747FF"/>
</svg>
