<svg width="56" height="64" viewBox="0 0 56 64" fill="none" xmlns="http://www.w3.org/2000/svg">
<path d="M36.8989 63.8902L55.7039 59.7926C55.7039 59.7926 48.9178 13.5454 48.8631 13.2514C48.8449 13.1157 48.7797 12.9908 48.6792 12.8986C48.5786 12.8065 48.4491 12.7529 48.3133 12.7474C48.0526 12.7474 43.2862 12.3904 43.2862 12.3904C43.2862 12.3904 39.9636 9.04612 39.5362 8.6865C39.4463 8.60401 39.3421 8.53904 39.2287 8.49487L39.2209 8.49225L36.839 63.8797H36.8989V63.8902ZM26.0396 3.12413C26.418 3.12564 26.7857 3.25093 27.0872 3.48113L27.082 3.4785C24.5307 4.69912 21.7162 7.77037 20.5592 13.9575C18.9262 14.4892 17.2851 14.995 15.6364 15.4748C16.9967 10.7891 20.2569 3.15037 26.0396 3.15037V3.12413ZM29.245 10.8652V11.2196C27.2801 11.8286 25.1197 12.4901 23.0062 13.1516C23.2692 11.5308 23.8914 9.99059 24.8267 8.64539C25.762 7.30019 26.9863 6.18462 28.4085 5.38163L28.4632 5.35275C29.071 7.13255 29.3441 9.01089 29.2685 10.8915V10.8652H29.245ZM30.6497 5.001C32.4582 5.19525 33.6231 7.27687 34.3737 9.60787C33.4642 9.90712 32.4582 10.2142 31.3559 10.5686V9.90713L31.3611 9.56063C31.3611 7.9305 31.1005 6.35812 30.621 4.89075L30.6497 4.99575V5.001ZM38.4469 8.38463C38.3947 8.38463 38.2905 8.43975 38.2436 8.43975C38.1967 8.43975 37.4905 8.63662 36.3829 8.991C35.2806 5.75437 33.3182 2.76975 29.847 2.76975H29.5473C29.1762 2.23956 28.6915 1.80028 28.1289 1.48447C27.5664 1.16866 26.9405 0.984407 26.2976 0.945375H26.2872C18.1929 0.945375 14.3256 11.1225 13.1138 16.2911C10.0022 17.2493 7.73756 17.9606 7.48478 18.0604C5.72571 18.6195 5.6762 18.6694 5.47293 20.3441C5.27748 21.5569 0.703918 57.2595 0.703918 57.2595L36.0441 63.9454L38.4599 8.38463H38.4469Z" fill="#EF3D04"/>
<path d="M11.6431 49.8203L12.0512 47.6372L15.1391 46.5945L18.7081 26.8488L15.9517 26.0268L16.6026 23.7932L26.6564 23.4877L25.7065 25.8167L22.4423 26.7353L18.9739 46.478L22.0763 47.3325L21.6969 49.5148L11.6431 49.8203Z" fill="white"/>
</svg>
